<svg width="108" height="59" viewBox="0 0 108 59" fill="none" xmlns="http://www.w3.org/2000/svg">
<path fill-rule="evenodd" clip-rule="evenodd" d="M24.568 28.2387C24.568 24.7747 23.8813 22.1015 22.5461 20.2565C21.2109 18.374 19.2653 17.4703 16.7474 17.4703C14.3059 17.4703 12.4366 18.4116 11.0632 20.2565C9.80431 21.9509 9.15578 24.6241 9.15578 28.2387C9.15578 31.6273 9.84246 34.15 11.1777 35.8443C12.5129 37.7269 14.4585 38.6305 16.9763 38.6305C19.3034 38.6305 21.1727 37.6892 22.5079 35.8443C23.8813 33.9617 24.568 31.4391 24.568 28.2387ZM9.19392 54.3689C9.19392 55.6114 8.73614 56.6656 7.85871 57.5692C6.94313 58.4729 5.87496 58.887 4.61604 58.887H0V25.716C0 19.5035 1.83116 15.2489 5.53161 12.9898C9.23207 10.7307 13.2377 9.60115 17.5486 9.60115C19.7994 9.60115 22.0883 10.0153 24.3773 10.8813C26.6662 11.7096 28.4973 12.9521 29.8326 14.5335C32.5411 17.9974 33.8764 22.4403 33.8764 27.8622C33.8764 33.4722 32.5411 37.9904 29.8326 41.4544C27.124 44.843 23.6524 46.4997 19.456 46.4997C17.2052 46.4997 14.8781 46.1232 13.1614 45.3325C11.3684 44.4288 9.19392 43.2993 9.19392 44.6924V54.3689Z" fill="white"/>
<path fill-rule="evenodd" clip-rule="evenodd" d="M34.7156 0H39.5606C40.8195 0 41.8877 0.414167 42.8032 1.28015C43.7188 2.10849 44.1385 3.16273 44.1385 4.40523V45.822H34.7156V0Z" fill="white"/>
<path fill-rule="evenodd" clip-rule="evenodd" d="M66.5701 27.9751C65.3112 28.6152 63.5563 29.18 61.3055 29.7071L58.2155 30.3848C56.5751 30.8366 55.4306 31.4014 54.7058 32.1168C54.0572 33.0957 53.752 34.0747 53.752 35.0536C53.752 36.3714 54.1717 37.4633 54.9728 38.254C55.7739 38.9694 56.9566 39.3082 58.4825 39.3082C61.0004 39.3082 62.9841 38.5929 64.4338 37.1621C65.8834 35.7313 66.6083 33.7735 66.6083 31.2884V27.9751H66.5701ZM68.7446 44.3535C66.8372 45.3325 64.8534 45.9349 62.7552 46.1608C60.6189 46.3867 58.7877 46.4997 57.1473 46.4997C53.9046 46.4997 51.0816 45.6337 48.6401 43.9017C46.1985 42.1698 44.9777 39.3082 44.9777 35.3172C44.9777 31.5897 46.0841 28.9164 48.2967 27.335C50.5094 25.7537 53.2942 24.6618 56.7277 24.1347C57.1854 24.1347 57.7195 24.0593 58.3299 23.9464C58.9403 23.7958 59.6651 23.7205 60.5044 23.6075C64.4719 23.0804 66.4557 21.9132 66.4557 20.1436C66.4557 18.8258 65.769 17.9598 64.3575 17.5456C62.9459 17.1315 61.687 16.9432 60.5044 16.9432C59.2455 16.9432 58.101 17.1315 57.1473 17.4703C56.1554 17.8092 55.4306 18.4869 54.9728 19.4659H45.9315C46.2748 16.7173 47.5337 14.4582 49.7082 12.6886C52.1498 10.6554 55.5832 9.6388 60.0848 9.6388C65.1205 9.6388 68.8972 10.4671 71.415 12.1615C74.0092 13.9311 75.3444 16.4161 75.3444 19.6165V31.7403C75.3444 35.2795 74.6959 38.0657 73.3988 40.0613C72.1017 42.0191 70.5376 43.4876 68.7446 44.3535Z" fill="white"/>
<path fill-rule="evenodd" clip-rule="evenodd" d="M107.657 45.6337H102.926C101.591 45.6337 100.485 45.2195 99.6072 44.3535C98.7679 43.5252 98.3101 42.4333 98.3101 41.0779V23.0051C98.3101 20.859 97.6616 19.3153 96.3645 18.3363C95.0675 17.3574 93.5797 16.8679 91.9774 16.8679C90.3751 16.8679 88.9255 17.3574 87.6665 18.3363C86.4076 19.3153 85.7972 20.859 85.7972 23.0051V45.6713H76.3363V24.85C76.3363 18.8258 77.9385 14.7594 81.1431 12.7262C84.3476 10.693 87.8573 9.5635 91.7485 9.41289C95.716 9.41289 99.3402 10.4295 102.697 12.4627C106.016 14.4959 107.695 18.6375 107.695 24.85L107.657 45.6337Z" fill="white"/>
<path fill-rule="evenodd" clip-rule="evenodd" d="M37.5005 57.0421V54.03C37.5005 53.7664 37.4242 53.5405 37.2335 53.4276C37.0427 53.3146 36.852 53.2393 36.6612 53.2393C36.4324 53.2393 36.2416 53.3146 36.089 53.4276C35.9364 53.5405 35.822 53.7664 35.822 54.03V57.0421H34.563V54.2936C34.563 53.5029 34.7919 52.9757 35.2116 52.6745C35.6312 52.411 36.089 52.2604 36.6231 52.2227C36.8901 52.2227 37.1572 52.2604 37.4242 52.298C37.6913 52.3733 37.9202 52.4863 38.1491 52.6369C38.3398 52.4863 38.5306 52.3733 38.7976 52.298C39.0265 52.2227 39.2935 52.1851 39.5606 52.1851C40.0947 52.1851 40.5525 52.3357 41.0102 52.5992C41.468 52.8628 41.6588 53.4276 41.6588 54.2559V57.0045H41.0484C40.8576 57.0045 40.7051 56.9668 40.5906 56.8539C40.4762 56.7409 40.438 56.5903 40.438 56.402V53.9923C40.438 53.7288 40.3617 53.5029 40.171 53.3899C39.9802 53.277 39.7895 53.2017 39.5987 53.2017C39.3698 53.2017 39.1791 53.277 39.0265 53.3899C38.8357 53.5029 38.7594 53.7288 38.7594 53.9923V57.0421H37.5005Z" fill="white"/>
<path fill-rule="evenodd" clip-rule="evenodd" d="M45.7026 54.6701C45.55 54.7454 45.2829 54.8207 45.0159 54.896L44.5963 54.9713C44.3674 55.0466 44.2148 55.1219 44.1385 55.1972C44.0622 55.3102 44.024 55.4608 44.024 55.5737C44.024 55.762 44.0622 55.8749 44.1766 55.9879C44.2911 56.0632 44.4437 56.1385 44.6344 56.1385C44.9777 56.1385 45.2448 56.0632 45.4355 55.8749C45.6263 55.6867 45.7407 55.4231 45.7407 55.0842V54.6701H45.7026ZM46.0078 56.8539C45.7407 56.9668 45.4737 57.0798 45.2066 57.0798C44.9396 57.1174 44.6726 57.1174 44.4818 57.1174C44.0622 57.1174 43.6807 57.0045 43.3373 56.7786C43.0321 56.5527 42.8414 56.1761 42.8414 55.649C42.8414 55.1595 42.994 54.783 43.261 54.5948C43.5662 54.3689 43.9096 54.2559 44.3674 54.1806C44.4437 54.1806 44.4818 54.1806 44.5963 54.143C44.6726 54.143 44.787 54.1053 44.8633 54.1053C45.3974 54.03 45.6644 53.8794 45.6644 53.6535C45.6644 53.4652 45.5881 53.3523 45.3974 53.3146C45.2066 53.277 45.054 53.2393 44.9014 53.2393C44.7489 53.2393 44.5963 53.277 44.4437 53.3146C44.3292 53.3523 44.2148 53.4652 44.1766 53.5782H42.994C43.0321 53.2017 43.2229 52.9004 43.4899 52.6745C43.7951 52.411 44.2529 52.2604 44.8633 52.2604C45.5118 52.2604 46.0459 52.3733 46.3511 52.5992C46.6945 52.8251 46.8852 53.164 46.8852 53.5782V55.1972C46.8852 55.649 46.8089 56.0255 46.6182 56.2891C46.4274 56.515 46.2367 56.7033 46.0078 56.8539Z" fill="white"/>
<path fill-rule="evenodd" clip-rule="evenodd" d="M48.0678 54.783C48.0678 54.3312 48.1441 53.9547 48.2586 53.6158C48.4112 53.3146 48.6019 53.0511 48.8308 52.8628C49.0597 52.6745 49.3267 52.5616 49.6319 52.4863C49.9371 52.411 50.2423 52.3733 50.5857 52.3733C50.6238 52.3733 50.6238 52.3733 50.662 52.3733C50.7001 52.3733 50.7383 52.3733 50.7383 52.3733V53.6158H50.3186C49.9753 53.6158 49.7082 53.6911 49.5556 53.8794C49.403 54.03 49.2886 54.2936 49.2886 54.6701V57.0798H48.0678V54.783Z" fill="white"/>
<path fill-rule="evenodd" clip-rule="evenodd" d="M53.1035 52.3357V54.0676L54.6295 52.3357H56.1173L54.4387 54.143L56.1554 57.0421H54.6676L53.7902 55.4608C53.5994 55.1595 53.4468 55.0089 53.3324 55.0466C53.2179 55.0842 53.1416 55.1595 53.1416 55.2725V57.0421H51.8827V50.9802H52.5313C52.6839 50.9802 52.8365 51.0555 52.9509 51.1685C53.0653 51.2814 53.1416 51.432 53.1416 51.5826V52.3357H53.1035Z" fill="white"/>
<path fill-rule="evenodd" clip-rule="evenodd" d="M58.5207 54.2183H60.3518C60.3137 53.917 60.2374 53.6535 60.0848 53.5029C59.9322 53.3523 59.7033 53.2393 59.4362 53.2393C59.1692 53.2393 58.9403 53.3146 58.7877 53.5029C58.6351 53.6535 58.5207 53.917 58.5207 54.2183ZM60.657 55.5737H61.5344C61.42 56.0632 61.153 56.4397 60.7715 56.7033C60.39 56.9668 59.9322 57.1174 59.3599 57.1174C58.6733 57.1174 58.1392 56.8915 57.7577 56.4773C57.3762 56.0632 57.1854 55.4608 57.1854 54.6701C57.1854 53.917 57.3762 53.3146 57.7577 52.9004C58.1392 52.4486 58.6733 52.2604 59.3599 52.2604C60.0848 52.2604 60.6189 52.4863 61.0385 52.9004C61.42 53.3523 61.6107 53.9547 61.6107 54.7077C61.6107 54.7454 61.6107 54.783 61.6107 54.8207C61.6107 54.8583 61.6107 54.896 61.6107 54.896C61.6107 54.9713 61.6107 55.0089 61.6107 55.0089H58.5207C58.5207 55.3855 58.6351 55.649 58.7877 55.8373C58.9403 56.0255 59.1692 56.1008 59.4744 56.1008C59.6651 56.1008 59.8559 56.0632 60.0085 55.9879C60.0466 55.9879 60.0848 55.9502 60.1229 55.9126C60.1611 55.8749 60.1992 55.8373 60.2374 55.7996C60.2374 55.762 60.2755 55.7243 60.39 55.649C60.4281 55.6114 60.5044 55.5737 60.657 55.5737Z" fill="white"/>
<path fill-rule="evenodd" clip-rule="evenodd" d="M64.9297 57.0421C64.5482 57.0798 64.0904 57.0421 63.6326 57.0421C63.1748 57.0045 62.946 56.7033 62.946 56.1761V50.9802H63.5945C63.7471 50.9802 63.8997 51.0555 64.0141 51.1685C64.1286 51.2814 64.2049 51.432 64.2049 51.5826V52.3733H64.9297V52.6369C64.9297 52.8251 64.8534 52.9381 64.739 53.0887C64.6245 53.2017 64.4719 53.2393 64.3193 53.2393H64.2049V55.8373C64.2049 56.0255 64.3193 56.1385 64.5482 56.1385H64.9297V57.0421Z" fill="white"/>
<path fill-rule="evenodd" clip-rule="evenodd" d="M66.1505 52.3357H66.799C66.9516 52.3357 67.1042 52.411 67.2187 52.5239C67.3331 52.6369 67.4094 52.7875 67.4094 52.9381V57.0421H66.1505V52.3357ZM66.1505 50.9426H66.799C66.9516 50.9426 67.1042 51.0179 67.2187 51.1308C67.3331 51.2438 67.4094 51.3944 67.4094 51.545V51.9215H66.1505V50.9426Z" fill="white"/>
<path fill-rule="evenodd" clip-rule="evenodd" d="M71.9873 57.0421C71.7965 57.0421 71.6439 57.0045 71.5295 56.8915C71.415 56.7786 71.3769 56.628 71.3769 56.4397V54.03C71.3769 53.7664 71.3006 53.5405 71.1098 53.4276C70.9191 53.3146 70.7284 53.2393 70.5376 53.2393C70.3087 53.2393 70.118 53.3146 69.9654 53.4276C69.8128 53.5405 69.7365 53.7664 69.7365 54.03V57.0421H68.4776V54.2936C68.4776 53.5029 68.7065 52.9757 69.1261 52.6745C69.5457 52.411 70.0035 52.2604 70.5376 52.2227C71.0717 52.2227 71.5295 52.3733 71.9873 52.6369C72.4451 52.9005 72.6358 53.4652 72.6358 54.2936V57.0421H71.9873Z" fill="white"/>
<path fill-rule="evenodd" clip-rule="evenodd" d="M74.8866 54.7077C74.8866 55.5361 75.1155 55.9879 75.6114 56.0632C76.1074 56.1385 76.4507 56.0255 76.6796 55.7243C76.7941 55.6114 76.8704 55.3855 76.9085 55.1219C76.9467 54.8583 76.9467 54.5571 76.9085 54.2936C76.8704 54.03 76.7559 53.7664 76.6033 53.5782C76.4507 53.3523 76.2218 53.2393 75.9166 53.2393C75.497 53.2393 75.2299 53.3899 75.0774 53.6911C74.9629 53.9923 74.8866 54.3312 74.8866 54.7077ZM76.9467 56.7409V56.4397C76.7178 56.7786 76.4507 56.9668 76.0692 57.0421C75.6877 57.1174 75.3444 57.0798 75.0011 56.9668C74.6577 56.8162 74.3525 56.5527 74.0855 56.1761C73.8184 55.7996 73.704 55.2725 73.704 54.6701C73.704 53.9547 73.8566 53.3523 74.1999 52.9004C74.5433 52.4486 75.0774 52.2227 75.8403 52.2227C76.4126 52.2227 76.9467 52.3733 77.4426 52.6745C77.9385 52.9757 78.1674 53.5405 78.1674 54.3689V56.8539C78.1674 57.6822 77.9385 58.247 77.4426 58.5482C76.9467 58.8494 76.4126 59 75.8403 59C74.734 59 74.0473 58.5105 73.8184 57.4939H75.1155C75.2299 57.6445 75.3444 57.7952 75.5733 57.8705C75.764 57.9458 75.9548 57.9834 76.1455 57.9458C76.3363 57.9081 76.527 57.7952 76.6796 57.6069C76.8322 57.4186 76.9085 57.1174 76.9467 56.7409Z" fill="white"/>
<path fill-rule="evenodd" clip-rule="evenodd" d="M83.5464 54.6324C83.5464 55.0842 83.6227 55.4608 83.8135 55.7243C84.0042 55.9879 84.2331 56.1008 84.5765 56.1008C84.8817 56.1008 85.1487 55.9879 85.3395 55.7243C85.4921 55.4608 85.6065 55.1219 85.6065 54.6324C85.6065 54.2183 85.5302 53.8794 85.3395 53.6158C85.1487 53.3899 84.8817 53.277 84.5765 53.277C84.2713 53.277 84.0424 53.3899 83.8516 53.6535C83.6227 53.8794 83.5464 54.2183 83.5464 54.6324ZM85.5684 50.9426H86.1787C86.3313 50.9426 86.4839 51.0179 86.5984 51.1308C86.7128 51.2438 86.7891 51.3944 86.7891 51.545V54.9713C86.7891 55.7996 86.5602 56.3644 86.0643 56.6656C85.5684 56.9668 85.0343 57.1174 84.462 57.1174C84.1568 57.1174 83.8516 57.0798 83.5464 56.9668C83.2413 56.8539 83.0124 56.7033 82.8216 56.4773C82.4783 56.0255 82.2875 55.4608 82.2875 54.7077C82.2875 53.9547 82.4783 53.3899 82.8216 52.9381C83.165 52.4863 83.6227 52.2604 84.195 52.2604C84.5002 52.2604 84.7672 52.3357 84.9961 52.4486C85.225 52.5992 85.4158 52.7875 85.5684 53.0134V50.9426Z" fill="white"/>
<path fill-rule="evenodd" clip-rule="evenodd" d="M88.0862 52.3357H88.7347C88.8873 52.3357 89.0399 52.411 89.1544 52.5239C89.2688 52.6369 89.3451 52.7875 89.3451 52.9381V57.0421H88.0862V52.3357ZM88.0862 50.9426H88.7347C88.8873 50.9426 89.0399 51.0179 89.1544 51.1308C89.2688 51.2438 89.3451 51.3944 89.3451 51.545V51.9215H88.0862V50.9426Z" fill="white"/>
<path fill-rule="evenodd" clip-rule="evenodd" d="M91.5196 54.7077C91.5196 55.5361 91.7485 55.9879 92.2444 56.0632C92.7022 56.1385 93.0837 56.0255 93.3126 55.7243C93.4271 55.6114 93.5034 55.3855 93.5415 55.1219C93.5797 54.8583 93.5797 54.5571 93.5415 54.2936C93.5034 54.03 93.3889 53.7664 93.2363 53.5782C93.0837 53.3523 92.8548 53.2393 92.5496 53.2393C92.13 53.2393 91.8629 53.3899 91.7103 53.6911C91.5959 53.9923 91.5196 54.3312 91.5196 54.7077ZM93.5415 56.7409V56.4397C93.3126 56.7786 93.0456 56.9668 92.6641 57.0421C92.2826 57.1174 91.9392 57.0798 91.5959 56.9668C91.2526 56.8162 90.9474 56.5527 90.6803 56.1761C90.4133 55.7996 90.2988 55.2725 90.2988 54.6701C90.2988 53.9547 90.4514 53.3523 90.7948 52.9004C91.1381 52.4486 91.6722 52.2227 92.4352 52.2227C93.0074 52.2227 93.5415 52.3733 94.0374 52.6745C94.5334 52.9757 94.7623 53.5405 94.7623 54.3689V56.8539C94.7623 57.6822 94.5334 58.247 94.0374 58.5482C93.5415 58.8494 93.0074 59 92.4352 59C91.3289 59 90.6422 58.5105 90.4133 57.4939H91.7103C91.8248 57.6445 91.9392 57.7952 92.13 57.8705C92.3207 57.9458 92.5115 57.9834 92.7022 57.9458C92.893 57.9081 93.0837 57.7952 93.2363 57.6069C93.4271 57.4186 93.5415 57.1174 93.5415 56.7409Z" fill="white"/>
<path fill-rule="evenodd" clip-rule="evenodd" d="M96.0975 52.3357H96.746C96.8986 52.3357 97.0512 52.411 97.1657 52.5239C97.2801 52.6369 97.3564 52.7875 97.3564 52.9381V57.0421H96.0975V52.3357ZM96.0975 50.9426H96.746C96.8986 50.9426 97.0512 51.0179 97.1657 51.1308C97.2801 51.2438 97.3564 51.3944 97.3564 51.545V51.9215H96.0975V50.9426Z" fill="white"/>
<path fill-rule="evenodd" clip-rule="evenodd" d="M100.485 57.0421C100.103 57.0798 99.6835 57.0421 99.2257 57.0421C98.7679 57.0045 98.539 56.7033 98.539 56.1761V50.9802H99.1876C99.3402 50.9802 99.4928 51.0555 99.6072 51.1685C99.7217 51.2814 99.798 51.432 99.798 51.5826V52.3733H100.523V52.6369C100.523 52.8251 100.446 52.9381 100.332 53.0887C100.218 53.2017 100.065 53.2393 99.9124 53.2393H99.798V55.8373C99.798 56.0255 99.9124 56.1385 100.141 56.1385H100.523V57.0421H100.485Z" fill="white"/>
<path fill-rule="evenodd" clip-rule="evenodd" d="M104.338 54.6701C104.185 54.7454 103.956 54.8207 103.651 54.896L103.231 54.9713C103.002 55.0466 102.85 55.1219 102.774 55.1972C102.697 55.3102 102.659 55.4608 102.659 55.5737C102.659 55.762 102.697 55.8749 102.812 55.9879C102.926 56.0632 103.079 56.1385 103.27 56.1385C103.613 56.1385 103.88 56.0632 104.071 55.8749C104.261 55.6867 104.338 55.4231 104.338 55.0842V54.6701ZM104.643 56.8539C104.376 56.9668 104.109 57.0798 103.842 57.0798C103.575 57.1174 103.308 57.1174 103.117 57.1174C102.697 57.1174 102.316 57.0045 101.972 56.7786C101.667 56.5527 101.477 56.1761 101.477 55.649C101.477 55.1595 101.629 54.783 101.896 54.5948C102.201 54.3689 102.545 54.2559 103.002 54.1806C103.079 54.1806 103.117 54.1806 103.231 54.143C103.308 54.143 103.422 54.1053 103.498 54.1053C104.032 54.03 104.3 53.8794 104.3 53.6535C104.3 53.4652 104.223 53.3523 104.033 53.3146C103.842 53.277 103.689 53.2393 103.537 53.2393C103.384 53.2393 103.231 53.277 103.079 53.3146C102.964 53.3523 102.85 53.4652 102.812 53.5782H101.629C101.667 53.2017 101.858 52.9004 102.125 52.6745C102.43 52.411 102.888 52.2604 103.498 52.2604C104.147 52.2604 104.681 52.3733 104.986 52.5992C105.33 52.8251 105.52 53.164 105.52 53.5782V55.1972C105.52 55.649 105.444 56.0255 105.253 56.2891C105.101 56.515 104.872 56.7033 104.643 56.8539Z" fill="white"/>
<path fill-rule="evenodd" clip-rule="evenodd" d="M106.741 50.9426H107.39C107.542 50.9426 107.695 51.0179 107.809 51.0932C107.924 51.2061 108 51.3567 108 51.5073V57.0045H106.741V50.9426Z" fill="white"/>
</svg>
