<svg width="126" height="93" viewBox="0 0 126 93" fill="none" xmlns="http://www.w3.org/2000/svg">
<path d="M97.2437 66.1461C97.1105 66.1461 97.044 66.1461 96.9108 66.0797L68.8203 49.8671C68.6206 49.7342 68.4874 49.5348 68.4874 49.2691V45.9468C68.4874 45.5481 68.7537 45.2824 69.1531 45.2824C69.5525 45.2824 69.8187 45.5481 69.8187 45.9468V48.9368L97.2437 64.7508L124.669 48.9368V17.309L97.2437 1.56146L69.8187 17.3754V20.0332C69.8187 20.4319 69.5525 20.6977 69.1531 20.6977C68.7537 20.6977 68.4874 20.4319 68.4874 20.0332V16.9103C68.4874 16.6445 68.6206 16.4452 68.8203 16.3123L96.9108 0.0996677C97.1105 -0.0332226 97.3768 -0.0332226 97.5765 0.0996677L125.667 16.3123C125.867 16.4452 126 16.6445 126 16.9103V49.2691C126 49.5348 125.867 49.7342 125.667 49.8671L97.5765 66.0797C97.5099 66.1461 97.3768 66.1461 97.2437 66.1461Z" fill="url(#paint0_linear_6_1886)"/>
<path d="M85.3284 20.0997C84.9956 19.701 84.8624 18.9701 84.8624 18.0399C84.8624 17.3754 84.929 16.7774 85.0621 16.3787C85.1953 15.9801 85.395 15.6478 85.6612 15.4485C85.9275 15.2492 86.3269 15.1827 86.8594 15.1827C87.2588 15.1827 87.7248 15.2492 88.1241 15.3821V12.99H89.8548V20.5648H88.3904L88.1241 20.0332C87.9245 20.2326 87.7248 20.3654 87.4585 20.4319C87.1922 20.4983 86.9925 20.6977 86.7928 20.6977C86.1272 20.6977 85.6612 20.4983 85.3284 20.0997ZM88.1241 19.103V16.711C87.8579 16.5781 87.6582 16.5116 87.4585 16.5116C87.2588 16.5116 87.0591 16.5781 86.926 16.6445C86.7928 16.711 86.7263 16.8439 86.6597 17.0432C86.5931 17.2425 86.5931 17.5748 86.5931 17.9734C86.5931 18.3721 86.5931 18.6379 86.6597 18.8372C86.7263 19.0365 86.7928 19.1694 86.926 19.2359C87.0591 19.3023 87.1922 19.3688 87.3919 19.3688C87.6582 19.3688 87.9245 19.2359 88.1241 19.103Z" fill="white"/>
<path d="M91.3194 20.4319C90.9865 20.299 90.7203 19.9667 90.5206 19.6345C90.3209 19.3023 90.3209 18.7043 90.3209 17.9734C90.3209 17.2425 90.3874 16.6445 90.5206 16.2458C90.6537 15.8471 90.92 15.5814 91.2528 15.382C91.5856 15.2491 92.0516 15.1162 92.7173 15.1162C93.2498 15.1162 93.7157 15.1827 94.0486 15.2491C94.3814 15.382 94.5811 15.5149 94.7142 15.8471C94.8473 16.1794 94.9139 16.5116 94.9139 16.9767C94.9139 17.5083 94.7808 17.9069 94.448 18.1063C94.1151 18.3056 93.7157 18.4385 93.1166 18.4385H91.985C91.985 18.6378 92.0516 18.8372 92.1182 18.9701C92.1847 19.1029 92.3179 19.1694 92.451 19.2358C92.6507 19.3023 92.8504 19.3023 93.1832 19.3023H94.7142V20.299C94.3814 20.3654 94.1151 20.4319 93.7823 20.4983C93.4495 20.5647 93.1166 20.5647 92.7173 20.5647C92.1847 20.6976 91.6522 20.6312 91.3194 20.4319ZM92.9835 17.5747C93.1832 17.5747 93.2498 17.5083 93.3163 17.4418C93.3829 17.3754 93.4495 17.2425 93.4495 17.1096C93.4495 16.8438 93.3829 16.7109 93.3163 16.578C93.1832 16.5116 93.0501 16.4451 92.7838 16.4451C92.5176 16.4451 92.3178 16.5116 92.1847 16.7109C92.0516 16.8438 92.0516 17.176 92.0516 17.5747H92.9835Z" fill="white"/>
<path d="M96.2453 20.6312C95.8459 20.5647 95.5796 20.4983 95.3134 20.4318V19.4352H97.7763C97.9094 19.4352 98.0426 19.4352 98.1091 19.3687C98.1757 19.3023 98.2422 19.2358 98.2422 19.1029V18.97C98.2422 18.9036 98.1757 18.7707 98.1091 18.7707C98.0426 18.7043 97.9094 18.7043 97.7097 18.7043H96.8444C96.3118 18.7043 95.979 18.5714 95.6462 18.372C95.3799 18.1062 95.1802 17.774 95.1802 17.2425V16.9102C95.1802 16.578 95.2468 16.2458 95.3799 16.0464C95.5131 15.8471 95.7793 15.6478 96.0456 15.5149C96.3119 15.382 96.8444 15.3156 97.3769 15.3156C97.7097 15.3156 98.1091 15.3156 98.442 15.382C98.8413 15.4484 99.1076 15.5149 99.3073 15.5813V16.578H96.9775C96.8444 16.578 96.7112 16.578 96.6447 16.6445C96.5781 16.7109 96.5781 16.7773 96.5781 16.9102V17.0431C96.5781 17.176 96.6447 17.2425 96.7113 17.3089C96.7778 17.3754 96.911 17.3754 97.1106 17.3754H97.976C98.5085 17.3754 98.9079 17.5082 99.1742 17.774C99.4404 18.0398 99.5736 18.372 99.5736 18.8371V19.3687C99.5736 19.9003 99.3739 20.2989 99.041 20.4983C98.7082 20.6976 98.1091 20.8305 97.3103 20.8305C96.9775 20.6976 96.5781 20.6976 96.2453 20.6312Z" fill="white"/>
<path d="M100.372 20.0997C100.04 19.701 99.9064 18.9701 99.9064 18.0399C99.9064 17.3754 99.973 16.7774 100.106 16.3787C100.239 15.9801 100.439 15.6478 100.705 15.4485C100.971 15.2492 101.371 15.1827 101.903 15.1827C102.303 15.1827 102.769 15.2492 103.168 15.382V12.99H104.899V20.5648H103.434L103.168 20.0332C102.968 20.2325 102.769 20.3654 102.502 20.4319C102.236 20.4983 102.037 20.5648 101.77 20.5648C101.171 20.6977 100.705 20.4983 100.372 20.0997ZM103.235 19.103V16.7109C102.968 16.5781 102.769 16.5116 102.569 16.5116C102.369 16.5116 102.17 16.5781 102.037 16.6445C101.903 16.7109 101.837 16.8438 101.77 17.0432C101.704 17.2425 101.704 17.5747 101.704 17.9734C101.704 18.3721 101.704 18.6379 101.77 18.8372C101.837 19.0365 101.903 19.1694 102.037 19.2359C102.17 19.3023 102.303 19.3688 102.502 19.3688C102.702 19.3688 102.968 19.2359 103.235 19.103Z" fill="white"/>
<path d="M106.363 20.4319C106.03 20.299 105.764 19.9667 105.564 19.6345C105.365 19.3023 105.298 18.7043 105.298 17.9734C105.298 17.2425 105.365 16.6445 105.498 16.2458C105.631 15.8471 105.897 15.5814 106.23 15.382C106.563 15.2491 107.029 15.1162 107.694 15.1162C108.227 15.1162 108.693 15.1827 109.026 15.2491C109.359 15.382 109.558 15.5149 109.691 15.8471C109.825 16.1794 109.891 16.5116 109.891 16.9767C109.891 17.5083 109.758 17.9069 109.425 18.1063C109.092 18.3056 108.693 18.4385 108.094 18.4385H106.962C106.962 18.6378 107.029 18.8372 107.095 18.9701C107.162 19.1029 107.295 19.1694 107.428 19.2358C107.628 19.3023 107.828 19.3023 108.16 19.3023H109.691V20.299C109.359 20.3654 109.092 20.4319 108.759 20.4983C108.427 20.5647 108.094 20.5647 107.694 20.5647C107.228 20.6976 106.763 20.6312 106.363 20.4319ZM108.027 17.5747C108.227 17.5747 108.294 17.5083 108.36 17.4418C108.427 17.3754 108.493 17.2425 108.493 17.1096C108.493 16.8438 108.427 16.7109 108.36 16.578C108.227 16.5116 108.094 16.4451 107.828 16.4451C107.561 16.4451 107.362 16.5116 107.228 16.7109C107.095 16.8438 107.095 17.176 107.095 17.5747H108.027Z" fill="white"/>
<path d="M77.9398 44.6843C77.8733 44.6178 77.8733 44.6178 77.8733 44.5514V43.4882C77.8733 43.3554 77.9398 43.2889 78.073 43.2889H79.4043C79.5374 43.2889 79.604 43.3554 79.604 43.4882V44.5514C79.604 44.6843 79.5374 44.7507 79.4043 44.7507H78.073C78.073 44.7507 78.0064 44.7507 77.9398 44.6843ZM77.9398 45.4816H79.6705V50.8637H77.9398V45.4816Z" fill="white"/>
<path d="M80.2028 45.4816H81.6007L81.9335 46.0132C82.1332 45.8803 82.3995 45.681 82.6657 45.5481C82.932 45.4152 83.2648 45.3488 83.5311 45.3488C84.1302 45.3488 84.5961 45.5481 84.8624 45.8803C85.1287 46.2125 85.1952 46.6777 85.1952 47.3421V50.8637H83.4645V47.6079C83.4645 47.2092 83.2648 46.9434 82.8654 46.9434C82.5326 46.9434 82.2664 47.0763 81.9335 47.2757V50.8637H80.2028V45.4816Z" fill="white"/>
<path d="M86.6597 50.6643C86.3269 50.465 86.0606 50.1992 85.861 49.8005C85.6613 49.4018 85.5947 48.8703 85.5947 48.2058C85.5947 47.4749 85.6613 46.9434 85.861 46.5447C86.0606 46.146 86.2604 45.8802 86.6597 45.6809C86.9926 45.548 87.5251 45.4151 88.1242 45.4151C88.7233 45.4151 89.2558 45.4816 89.5886 45.6809C89.9214 45.8802 90.1877 46.146 90.3874 46.5447C90.5205 46.9434 90.6537 47.4749 90.6537 48.2058C90.6537 48.9367 90.5871 49.4683 90.3874 49.867C90.2543 50.2656 89.988 50.5314 89.5886 50.7307C89.1892 50.9301 88.7233 50.9965 88.0576 50.9965C87.5251 50.9301 87.0591 50.7972 86.6597 50.6643ZM88.6567 49.4683C88.7898 49.4018 88.8564 49.2689 88.923 49.0696C88.9895 48.8703 88.9895 48.5381 88.9895 48.1394C88.9895 47.7407 88.9895 47.4085 88.923 47.2092C88.8564 47.0098 88.7898 46.8769 88.6567 46.8105C88.5236 46.744 88.3904 46.744 88.1907 46.744C87.991 46.744 87.7914 46.744 87.7248 46.8105C87.6582 46.8769 87.5251 47.0098 87.5251 47.2092C87.5251 47.4085 87.4585 47.6743 87.4585 48.1394C87.4585 48.5381 87.4585 48.8703 87.5251 49.0696C87.5917 49.2689 87.6582 49.4018 87.7914 49.4683C87.9245 49.5347 88.0576 49.5347 88.2573 49.5347C88.3904 49.5347 88.5236 49.5347 88.6567 49.4683Z" fill="white"/>
<path d="M90.5206 45.4816H92.3179L93.3164 49.2689L94.3149 45.4816H96.1121L94.3149 50.8636H92.3179L90.5206 45.4816Z" fill="white"/>
<path d="M96.2453 50.5315C95.9791 50.2657 95.8459 49.9335 95.8459 49.5348V49.0032C95.8459 48.6046 95.9791 48.2059 96.3119 48.0066C96.6447 47.8072 97.0441 47.6079 97.6432 47.6079H98.8414V47.3421C98.8414 47.2092 98.8414 47.0763 98.7748 46.9434C98.7083 46.877 98.6417 46.8105 98.442 46.7441C98.3089 46.6777 98.0426 46.6777 97.7098 46.6777H96.1122V45.681C96.7779 45.4816 97.5101 45.3488 98.3089 45.3488C99.0411 45.3488 99.5736 45.4816 99.973 45.7474C100.306 46.0132 100.506 46.4783 100.506 47.2092V50.7973H99.1077L98.8414 50.2657C98.7083 50.3986 98.442 50.5315 98.1757 50.6644C97.8429 50.7973 97.5101 50.8637 97.1107 50.8637C96.8444 50.9301 96.5116 50.7973 96.2453 50.5315ZM98.5751 49.6677C98.7083 49.6012 98.8414 49.6012 98.908 49.5348V48.4717L98.2423 48.5381C97.7763 48.6046 97.5767 48.8039 97.5767 49.0697V49.269C97.5767 49.6012 97.7764 49.7341 98.1092 49.7341C98.2423 49.7341 98.3754 49.7341 98.5751 49.6677Z" fill="white"/>
<path d="M101.171 45.4816H102.569L102.902 46.0132C103.102 45.8803 103.368 45.681 103.634 45.5481C103.9 45.4152 104.233 45.3488 104.5 45.3488C105.099 45.3488 105.565 45.5481 105.831 45.8803C106.097 46.2125 106.164 46.6777 106.164 47.3421V50.8637H104.433V47.6079C104.433 47.2092 104.233 46.9434 103.834 46.9434C103.501 46.9434 103.235 47.0763 102.902 47.2757V50.8637H101.171V45.4816Z" fill="white"/>
<path d="M107.095 50.2656C106.763 49.8669 106.629 49.136 106.629 48.2058C106.629 47.5413 106.696 46.9433 106.829 46.5447C106.962 46.146 107.162 45.8138 107.428 45.6144C107.694 45.4151 108.094 45.3486 108.626 45.3486C109.026 45.3486 109.492 45.4151 109.891 45.548V43.156H111.622V50.7307H110.157L109.891 50.1991C109.691 50.3985 109.492 50.5314 109.225 50.5978C108.959 50.6643 108.76 50.7307 108.493 50.7307C107.894 50.93 107.428 50.7307 107.095 50.2656ZM109.891 49.2689V46.8769C109.625 46.744 109.425 46.6775 109.225 46.6775C109.026 46.6775 108.826 46.744 108.693 46.8104C108.56 46.8769 108.493 47.0098 108.427 47.2091C108.36 47.4084 108.36 47.7407 108.36 48.1393C108.36 48.538 108.36 48.8038 108.427 49.0031C108.493 49.2025 108.56 49.3354 108.693 49.4018C108.826 49.4682 108.959 49.5347 109.159 49.5347C109.425 49.5347 109.691 49.4682 109.891 49.2689Z" fill="white"/>
<path d="M113.086 50.6643C112.754 50.465 112.487 50.1992 112.288 49.8005C112.088 49.4018 112.021 48.8703 112.021 48.2058C112.021 47.4749 112.088 46.9434 112.288 46.5447C112.487 46.146 112.687 45.8802 113.086 45.6809C113.419 45.548 113.952 45.4151 114.551 45.4151C115.15 45.4151 115.682 45.4816 116.015 45.6809C116.348 45.8802 116.614 46.146 116.814 46.5447C116.947 46.9434 117.08 47.4749 117.08 48.2058C117.08 48.9367 117.014 49.4683 116.814 49.867C116.681 50.2656 116.415 50.5314 116.015 50.7307C115.616 50.9301 115.15 50.9965 114.484 50.9965C113.952 50.9301 113.486 50.7972 113.086 50.6643ZM115.083 49.4683C115.216 49.4018 115.283 49.2689 115.35 49.0696C115.416 48.8703 115.416 48.5381 115.416 48.1394C115.416 47.7407 115.416 47.4085 115.35 47.2092C115.283 47.0098 115.216 46.8769 115.083 46.8105C114.95 46.744 114.817 46.744 114.617 46.744C114.418 46.744 114.218 46.744 114.151 46.8105C114.085 46.8769 113.952 47.0098 113.952 47.2092C113.952 47.4085 113.885 47.6743 113.885 48.1394C113.885 48.5381 113.885 48.8703 113.952 49.0696C114.018 49.2689 114.085 49.4018 114.218 49.4683C114.351 49.5347 114.484 49.5347 114.684 49.5347C114.817 49.5347 114.95 49.5347 115.083 49.4683Z" fill="white"/>
<path d="M101.77 33.3222H97.5764V37.5083H101.77V33.3222Z" fill="#ED1864"/>
<path d="M101.77 28.5382H97.5764V32.7243H101.77V28.5382Z" fill="#58595B"/>
<path d="M96.9775 28.5382H92.7838V32.7242H96.9775V28.5382Z" fill="#F58220"/>
<path d="M84.7293 34.5846L81.7339 37.5747H86.3935C85.7278 36.578 85.2619 35.4484 85.0622 34.186C84.929 34.3188 84.8625 34.4517 84.7293 34.5846ZM83.9971 36.6444L84.5296 36.1129C84.5962 36.3122 84.6628 36.5115 84.7293 36.6444H83.9971Z" fill="white"/>
<g clip-path="url(#clip0_6_1886)">
<path d="M101.423 33.2965H97.2948V37.4504H101.423V33.2965Z" fill="#ED1864"/>
<path d="M101.423 28.5493H97.2948V32.7031H101.423V28.5493Z" fill="#58595B"/>
<path d="M96.7051 28.5493H92.5771V32.7031H96.7051V28.5493Z" fill="#F58220"/>
<path d="M112.627 31.9119C112.889 31.5822 113.02 31.3185 113.151 30.9888C113.282 30.6591 113.348 30.3954 113.348 30.0657C113.348 29.7361 113.282 29.4064 113.151 29.2086C113.02 29.0108 112.824 28.813 112.562 28.6811C112.365 28.6152 112.103 28.5493 111.775 28.5493H107.778C108.63 29.8679 109.154 31.3844 109.154 33.0328C109.154 34.1537 108.958 35.2086 108.499 36.1976L111.71 32.9668C112.103 32.5712 112.365 32.2416 112.627 31.9119ZM110.072 33.2306C110.072 33.1646 110.072 33.0987 110.072 32.9668C110.072 31.7141 109.81 30.5273 109.351 29.4064H111.775C112.037 29.4064 112.168 29.4723 112.234 29.4723C112.365 29.5383 112.365 29.5383 112.365 29.6042C112.431 29.6701 112.431 29.802 112.431 29.9998C112.431 30.1976 112.365 30.3954 112.299 30.5932C112.234 30.791 112.037 31.0548 111.906 31.3185C111.71 31.5822 111.382 31.9119 111.055 32.2416L110.072 33.2306Z" fill="white"/>
<path d="M117.017 36.5932H113.872L115.248 35.2086C115.838 34.6152 116.296 34.0877 116.689 33.4943C117.083 32.9009 117.41 32.2416 117.672 31.5822C117.869 30.9229 118 30.1317 118 29.3405C118 28.2855 117.803 27.3624 117.476 26.5712C117.083 25.7141 116.427 25.0547 115.51 24.5932C114.658 24.1976 113.61 23.9998 112.365 23.9998H101.423C101.357 23.9998 101.292 23.9998 101.292 23.9998C101.226 23.9998 101.226 23.9998 101.161 23.9998C99.7847 23.9998 98.4087 24.3295 97.1637 24.9888C95.9188 24.3295 94.5428 23.9998 93.1669 23.9998C91.0701 23.9998 89.1045 24.7251 87.4664 26.0438C87.0733 25.4504 86.4836 24.9229 85.7628 24.5932C84.9765 24.1976 83.9282 23.9998 82.6832 23.9998H76.9173C76.3931 23.9998 75.9999 24.3954 75.9999 24.9229V28.4833C75.9999 29.0108 76.3931 29.4064 76.9173 29.4064H82.028C82.2901 29.4064 82.4212 29.4723 82.4867 29.4723C82.6177 29.5383 82.6177 29.5383 82.6177 29.6042C82.6832 29.6701 82.6832 29.802 82.6832 29.9998C82.6832 30.1976 82.6177 30.3954 82.5522 30.5932C82.4867 30.791 82.2901 31.0547 82.1591 31.3185C81.9625 31.5822 81.6349 31.9119 81.3073 32.2416L76.1965 37.3844C76.0655 37.5822 75.9999 37.846 75.9999 38.0438V41.0108C75.9999 41.5383 76.3931 41.9339 76.9173 41.9339H92.9703C93.0358 41.9339 93.0358 41.9339 93.1013 41.9339C93.1013 41.9339 93.1013 41.9339 93.1669 41.9339C94.5428 41.9339 95.9188 41.6042 97.1637 40.9449C98.4087 41.6042 99.7847 41.9339 101.161 41.9339C101.226 41.9339 101.226 41.9339 101.292 41.9339C101.357 41.9339 101.423 41.9339 101.423 41.9339H117.017C117.541 41.9339 117.934 41.5383 117.934 41.0108V37.4504C117.934 36.9888 117.541 36.5932 117.017 36.5932ZM117.017 37.7141V41.0767H110.727H108.63H106.665H101.488C101.357 41.0767 101.292 41.0767 101.161 41.0767C99.7191 41.0767 98.3432 40.6811 97.1637 40.0218C95.9843 40.6811 94.6084 41.0767 93.1669 41.0767C93.1013 41.0767 93.0358 41.0767 92.9703 41.0767H78.9485H76.9828V38.1097L82.0935 32.9668C82.4867 32.6372 82.7488 32.2416 83.0109 31.9778C83.273 31.6482 83.404 31.3844 83.535 31.0547C83.6661 30.7251 83.7316 30.4613 83.7316 30.1317C83.7316 29.802 83.6661 29.4723 83.535 29.2745C83.404 29.0767 83.2074 28.8789 82.9453 28.7471C82.7488 28.6811 82.4867 28.6152 82.1591 28.6152H76.9173V24.9229H82.6832C83.7971 24.9229 84.7144 25.1207 85.4352 25.4504C86.1559 25.78 86.6801 26.3075 86.9422 26.9668C87.0077 27.1646 87.1388 27.4284 87.2043 27.6921C88.6458 26.0438 90.8081 24.9888 93.1669 24.9888C94.6084 24.9888 95.9843 25.3844 97.1637 26.0438C98.3432 25.3844 99.7191 24.9888 101.161 24.9888C101.292 24.9888 101.357 24.9888 101.488 24.9888H112.365C113.479 24.9888 114.396 25.1866 115.117 25.5163C115.838 25.846 116.362 26.3734 116.624 27.0328C116.952 27.6921 117.083 28.4833 117.083 29.4064C117.083 30.1317 117.017 30.791 116.821 31.3844C116.624 31.9119 116.296 32.4394 115.969 32.9668C115.576 33.4943 115.182 34.0218 114.658 34.5493L111.71 37.5163H117.083V37.7141H117.017Z" fill="white"/>
</g>
<path fill-rule="evenodd" clip-rule="evenodd" d="M14.6055 37.8427C13.8988 38.7849 13.1136 39.4915 12.1713 39.9626C11.229 40.3551 10.1297 40.5907 8.95179 40.5907C6.20343 40.5907 4.00475 39.6485 2.43426 37.8427C0.785244 36.1154 0 33.6031 0 30.4626C0 27.4006 0.785244 24.9667 2.43426 23.1609C4.08327 21.2766 6.36048 20.3345 9.10884 20.3345C11.4646 20.3345 13.5062 20.8841 14.9982 22.0617C16.4901 23.3179 17.4324 24.8882 17.7465 26.851H15.0767C14.2914 26.851 13.7418 26.4584 13.3492 25.7518C13.1136 25.2807 12.721 24.8882 12.2498 24.4956C11.5431 23.946 10.5223 23.7105 9.26588 23.7105C7.6954 23.7105 6.36048 24.2601 5.49671 25.4378C4.55442 26.694 4.08327 28.3427 4.08327 30.3841C4.08327 32.5039 4.55442 34.0741 5.57524 35.3303C6.51753 36.508 7.85244 37.0576 9.57998 37.0576C10.8364 37.0576 11.8572 36.7435 12.721 35.9584C13.5062 35.1733 14.0559 34.1526 14.2914 32.8964H11.9357C11.386 32.8964 10.9149 32.7394 10.5223 32.3469C10.1297 31.9543 9.9726 31.4832 9.9726 30.9336V29.6774H17.9821V40.1196H16.8828C15.8619 40.1196 15.1552 39.57 14.9196 38.5493L14.6055 37.8427ZM19.5526 40.1196V32.975C19.5526 31.4832 19.7882 30.3055 20.1808 29.2849C20.5734 28.2642 21.2016 27.4791 21.9083 26.9295C22.615 26.3799 23.4788 25.9874 24.4211 25.6733C25.3634 25.4378 26.3842 25.2807 27.3265 25.2807C27.405 25.2807 27.4836 25.2807 27.6406 25.2807C27.7191 25.2807 27.8762 25.2807 27.9547 25.2807V29.2849H26.6983C25.599 29.2849 24.8137 29.5204 24.2641 30.07C23.7144 30.6196 23.4788 31.4047 23.4788 32.5039V40.1981H19.5526V40.1196ZM42.2462 25.2807V33.9956C42.2462 36.665 41.5394 38.3923 40.2045 39.1774C38.7911 39.9626 37.2991 40.4336 35.6501 40.4336C34.0796 40.3551 32.5876 39.884 31.2527 39.0989C29.9178 38.3138 29.2896 36.5865 29.2896 33.9956V25.2807H33.2158V34.7807C33.2158 35.6444 33.4514 36.351 34.0011 36.7435C34.5508 37.1361 35.1004 37.3716 35.8071 37.3716C36.5139 37.3716 37.0635 37.1361 37.6132 36.7435C38.1629 36.351 38.3985 35.6444 38.3985 34.7807V27.165C38.3985 26.6155 38.5555 26.2229 38.9481 25.8303C39.2622 25.4378 39.7334 25.2807 40.283 25.2807H42.2462ZM47.6643 43.7311C47.6643 44.2807 47.5073 44.6733 47.1147 45.0659C46.722 45.4584 46.3294 45.6154 45.7798 45.6154H43.8952V31.7188C43.8952 29.1279 44.6804 27.3221 46.1724 26.3799C47.6643 25.4378 49.3919 24.9667 51.1194 24.9667C52.0617 24.9667 53.004 25.1237 53.9463 25.5163C54.8886 25.9088 55.6738 26.3799 56.2235 27.0865C57.3228 28.4998 57.8725 30.384 57.8725 32.6609C57.8725 35.0163 57.3228 36.9006 56.2235 38.3923C55.1242 39.8055 53.7107 40.5121 51.9047 40.5121C50.9624 40.5121 50.1771 40.3551 49.4704 40.0411C48.6852 39.6485 48.1355 39.0989 47.6643 38.3138V43.7311ZM54.0248 32.8179C54.0248 31.3262 53.7107 30.227 53.161 29.4419C52.6114 28.6568 51.8261 28.2642 50.8053 28.2642C49.7845 28.2642 48.9993 28.6568 48.4496 29.4419C47.8999 30.1485 47.6643 31.2477 47.6643 32.8179C47.6643 34.2312 47.9784 35.3303 48.5281 36.0369C49.0778 36.8221 49.863 37.2146 50.9624 37.2146C51.9047 37.2146 52.6899 36.8221 53.2396 36.0369C53.7107 35.1733 54.0248 34.1526 54.0248 32.8179ZM61.3276 38.7849C60.5423 38.0783 59.9927 37.2146 59.6786 36.0369C59.3645 34.9378 59.2074 33.6816 59.2074 32.5039C59.2074 31.4832 59.3645 30.4626 59.6001 29.5204C59.9142 28.4998 60.3068 27.7146 60.935 27.008C61.8773 25.9088 63.1337 25.2022 64.7041 25.0452C66.1961 24.8097 67.6095 24.9667 68.8659 25.4378C70.2794 25.9874 71.3002 26.9295 72.0069 28.3427C72.6351 29.5989 72.9492 31.0121 72.9492 32.6609C72.9492 33.8386 72.7922 34.8593 72.5566 35.7229C72.321 36.5865 71.9284 37.2931 71.5358 37.9212C70.672 39.1774 69.4941 39.884 68.1592 40.1981C66.9028 40.5121 65.725 40.5907 64.4686 40.2766C63.0551 39.9626 62.1128 39.4915 61.3276 38.7849ZM63.9974 28.9708C63.2122 29.8345 62.8981 31.0907 62.9766 32.8179C63.0551 34.5452 63.3692 35.7229 63.9189 36.351C64.1545 36.665 64.5471 36.9006 65.0968 37.1361C65.6464 37.3716 66.1961 37.3716 66.8243 37.2146C67.374 37.0576 67.9236 36.665 68.3948 35.9584C68.8659 35.2518 69.1015 34.2312 69.1015 32.7394C69.1015 31.4047 68.8659 30.3841 68.4733 29.756C68.0807 29.0493 67.531 28.6568 66.9814 28.4998C66.4317 28.3427 65.882 28.3427 65.3323 28.4998C64.7041 28.4998 64.3115 28.7353 63.9974 28.9708Z" fill="white"/>
<path fill-rule="evenodd" clip-rule="evenodd" d="M0.706757 86.2064V69.0122C0.706757 68.4626 0.863806 67.9915 1.25643 67.5989C1.64905 67.2064 2.1202 66.9709 2.66987 66.9709H6.51756L10.2867 81.6527L14.1344 66.8923H20.0238V86.2064H16.3331V70.6609L12.4069 86.2064H8.32363L4.3974 70.6609V86.2064H0.706757ZM30.546 78.7477C29.9964 78.9832 29.2896 79.2188 28.3474 79.4543C27.4836 79.6113 27.091 79.7684 27.091 79.7684C26.3842 79.9254 25.9131 80.1609 25.599 80.475C25.3634 80.8675 25.2064 81.2601 25.2064 81.7312C25.2064 82.2807 25.3634 82.7518 25.6775 83.0659C25.9916 83.3799 26.4628 83.5369 27.1695 83.5369C28.1903 83.5369 29.0541 83.2229 29.6037 82.6733C30.2319 82.0452 30.4675 81.2601 30.4675 80.2394V78.7477H30.546ZM31.4098 85.5783C30.6246 85.9708 29.7608 86.2064 28.897 86.3634C28.0333 86.4419 27.248 86.5204 26.5413 86.5204C25.2064 86.5204 24.0285 86.1279 23.0077 85.4212C21.9869 84.7146 21.5157 83.4584 21.5157 81.8097C21.5157 80.2394 21.9869 79.1403 22.8506 78.4336C24.2641 77.413 26.1487 77.0989 27.9547 76.8634C29.6037 76.6279 30.389 76.1568 30.389 75.4502C30.389 74.9006 30.0749 74.508 29.5252 74.351C28.9755 74.194 28.4259 74.1155 27.9547 74.1155C27.4051 74.1155 26.9339 74.194 26.5413 74.351C26.1487 74.508 25.8346 74.8221 25.6775 75.2146H21.9869C22.1439 74.037 22.6936 73.0948 23.5574 72.3882C24.5782 71.5246 25.9916 71.132 27.8762 71.132C29.9964 71.132 31.5669 71.4461 32.5877 72.2312C33.687 72.9378 34.2367 74.037 34.2367 75.3717V80.475C34.2367 81.9667 34.0011 83.1444 33.4514 84.008C32.8232 84.6361 32.1951 85.2642 31.4098 85.5783ZM35.6501 86.2064V78.9832C35.6501 77.4915 35.8857 76.3138 36.2783 75.2932C36.6709 74.2725 37.2991 73.4874 38.0059 72.9378C38.7126 72.3882 39.5764 71.9956 40.5186 71.6816C41.4609 71.4461 42.4818 71.289 43.424 71.289C43.5026 71.289 43.5811 71.289 43.7381 71.289C43.8167 71.289 43.9737 71.289 44.0522 71.289V75.2932H42.7959C41.6965 75.2932 40.9113 75.5287 40.3616 76.0783C39.8119 76.6279 39.5764 77.413 39.5764 78.5122V86.2064H35.6501ZM49.3134 71.3675V76.8634L54.1034 71.3675H58.8148L53.4752 77.0989L58.8148 86.2849H54.1034L51.355 81.2601C50.8053 80.2394 50.3342 79.8469 49.8631 80.0039C49.4704 80.1609 49.2349 80.3965 49.2349 80.7105V82.7518V86.3634H45.3086V66.9709H47.3503C47.8999 66.9709 48.2926 67.1279 48.6852 67.5204C49.0778 67.913 49.2349 68.3056 49.2349 68.7766V71.3675H49.3134ZM69.3371 81.6527C68.866 81.6527 68.5519 81.7312 68.3163 81.9667C68.0807 82.1237 67.9237 82.2807 67.9237 82.4378C67.8451 82.5163 67.6881 82.6733 67.6096 82.7518C67.5311 82.8303 67.374 82.9088 67.2955 82.9088C66.8243 83.1444 66.2747 83.3014 65.6465 83.3014C64.7042 83.3014 63.9975 82.9874 63.4478 82.4378C62.9766 81.8882 62.6625 81.0245 62.584 79.8469H72.2425C72.2425 79.7684 72.321 79.6113 72.321 79.4543C72.321 79.4543 72.321 79.3758 72.321 79.2188C72.321 79.1403 72.321 78.9832 72.321 78.8262C72.321 76.3923 71.7714 74.4295 70.515 73.0948C69.3371 71.7601 67.531 71.0535 65.3324 71.0535C63.2122 71.0535 61.5632 71.7601 60.3853 73.0948C59.2075 74.4295 58.6578 76.3138 58.6578 78.6692C58.6578 81.1816 59.286 83.0659 60.4639 84.4006C61.6417 85.7353 63.2907 86.4419 65.4109 86.4419C67.1384 86.4419 68.6304 85.9708 69.8083 85.1857C70.9861 84.3221 71.7714 83.1444 72.164 81.5741H69.3371V81.6527ZM62.6625 77.256C62.6625 76.3138 62.9766 75.5287 63.5263 75.0576C64.076 74.508 64.7042 74.2725 65.5679 74.2725C66.4317 74.2725 67.1384 74.508 67.6096 75.0576C68.0807 75.5287 68.3163 76.3138 68.3948 77.256H62.6625ZM80.5661 86.2064C79.3097 86.2849 77.9748 86.2849 76.5614 86.1278C75.1479 86.0493 74.4412 85.1072 74.4412 83.3799V66.9709H76.4828C76.954 66.9709 77.4251 67.1279 77.7392 67.5204C78.1319 67.913 78.2889 68.3056 78.2889 68.8551V71.3675H80.5661V72.1527C80.5661 72.7022 80.4091 73.1733 80.0164 73.4874C79.6238 73.8799 79.2312 74.037 78.6815 74.037H78.2889V82.2808C78.2889 82.9088 78.6815 83.2229 79.3882 83.2229H80.5661V86.2064ZM82.2151 71.3675H84.2568C84.8064 71.3675 85.199 71.5246 85.5917 71.9171C85.9843 72.3097 86.1413 72.7023 86.1413 73.2518V86.2064H82.2151V71.3675ZM82.2151 66.9709H84.2568C84.8064 66.9709 85.199 67.1279 85.5917 67.5204C85.9843 67.913 86.1413 68.3056 86.1413 68.8551V70.0328H82.2151V66.9709ZM100.197 86.2064H98.2341C97.6844 86.2064 97.2133 86.0493 96.8992 85.6568C96.5066 85.2642 96.3495 84.8717 96.3495 84.3221V76.7064C96.3495 75.8427 96.1139 75.1361 95.5643 74.7436C95.0146 74.351 94.3864 74.1155 93.7582 74.1155C93.13 74.1155 92.5018 74.351 91.9521 74.7436C91.4025 75.1361 91.1669 75.8427 91.1669 76.7064V86.2064H87.2407V77.4915C87.2407 74.9791 87.8689 73.2518 89.2038 72.3882C90.5387 71.5246 91.9521 71.0535 93.6012 70.975C95.2502 70.975 96.7421 71.3675 98.1556 72.2312C99.569 73.0948 100.197 74.8221 100.197 77.413V86.2064ZM111.583 85.3427V84.4006C110.877 85.4212 110.013 86.1279 108.835 86.3634C107.657 86.5989 106.558 86.5204 105.458 86.0493C104.359 85.5783 103.338 84.7931 102.553 83.5369C101.768 82.3593 101.375 80.7105 101.375 78.7477C101.375 76.4708 101.925 74.5865 102.946 73.0948C104.045 71.6816 105.694 70.975 108.05 70.975C109.856 70.975 111.505 71.4461 112.997 72.4667C114.489 73.4089 115.274 75.2146 115.274 77.8055V85.6568C115.274 88.2477 114.489 90.0535 112.997 90.9956C111.505 91.9378 109.777 92.4088 108.05 92.4088C104.595 92.4088 102.474 90.8386 101.689 87.6196H105.772C106.087 88.1692 106.558 88.5617 107.107 88.7973C107.736 89.1113 108.364 89.1898 108.992 89.0328C109.62 88.8758 110.17 88.5617 110.641 87.9336C111.191 87.3841 111.505 86.5204 111.583 85.3427ZM105.223 78.9047C105.223 81.4956 105.93 82.9088 107.421 83.1444C108.913 83.4584 110.013 83.0659 110.719 82.1237C111.034 81.7312 111.269 81.1031 111.426 80.1609C111.583 79.2973 111.583 78.4336 111.426 77.57C111.269 76.7064 110.955 75.9213 110.484 75.2932C110.013 74.5865 109.306 74.2725 108.364 74.2725C107.107 74.2725 106.244 74.7436 105.772 75.6857C105.458 76.6279 105.223 77.727 105.223 78.9047Z" fill="white"/>
<path fill-rule="evenodd" clip-rule="evenodd" d="M5.02573 55.9791V62.6527V62.8882H4.79015H0.785406H0.628357V62.6527V45.4585C0.628357 44.8304 0.86393 44.2808 1.25655 43.8882C1.49213 43.6527 1.7277 43.4956 1.96327 43.4171C2.27737 43.2601 2.51294 43.1816 2.82704 43.1816H9.34457C10.3654 43.1816 11.3077 43.3386 12.0929 43.5742C12.8782 43.8097 13.5849 44.2808 14.056 44.8304C14.6057 45.3799 14.9983 46.0866 15.3124 46.8717C15.548 47.6568 15.7051 48.5989 15.7051 49.6196C15.7051 50.6403 15.548 51.5039 15.3124 52.289C15.0769 53.0741 14.6842 53.7808 14.1346 54.3303C13.5849 54.8799 12.9567 55.2725 12.1714 55.5865C11.3862 55.8221 10.5224 55.9791 9.58014 55.9791H5.02573ZM5.02573 52.132H8.63785C9.109 52.132 9.58014 52.0535 9.89424 51.975C10.2083 51.8965 10.5224 51.7394 10.6795 51.5039C10.9151 51.3469 11.0721 51.1113 11.1506 50.7973C11.2292 50.4832 11.3077 50.0907 11.3077 49.6196C11.3077 49.227 11.2292 48.8345 11.1506 48.5204C11.0721 48.2064 10.9151 47.9708 10.6795 47.7353C10.4439 47.4998 10.2083 47.4213 9.89424 47.2642C9.58014 47.1857 9.18752 47.1072 8.7949 47.1072H5.02573V52.132ZM17.3541 43.1816H19.3957C19.7098 43.1816 19.9454 43.2601 20.1809 43.3386C20.4165 43.4171 20.6521 43.5742 20.8877 43.8097C21.1232 44.0452 21.2803 44.2023 21.3588 44.5163C21.4373 44.7518 21.5159 45.0659 21.5159 45.3014V62.6527V62.8882H21.2803H17.3541H17.1185V62.6527V43.4171V43.1816H17.3541ZM31.2529 55.508C31.0958 55.5865 30.8603 55.6651 30.6247 55.7436C30.2321 55.9006 29.8395 55.9791 29.3683 56.0576C28.5045 56.2146 28.1119 56.3717 28.1119 56.3717C27.7978 56.4502 27.5622 56.5287 27.3267 56.6857C27.0911 56.7642 26.934 56.9212 26.777 56.9998C26.6985 57.1568 26.6199 57.3923 26.5414 57.5494C26.4629 57.7064 26.4629 57.9419 26.4629 58.0989C26.4629 58.3345 26.4629 58.57 26.5414 58.8055C26.6199 58.9626 26.6985 59.1981 26.8555 59.2766C27.0126 59.4336 27.1696 59.5122 27.4052 59.5907C27.6408 59.6692 27.8763 59.6692 28.1904 59.6692C28.6616 59.6692 29.1327 59.5907 29.5254 59.4336C29.918 59.2766 30.2321 59.1196 30.4676 58.8055C30.7032 58.4915 30.9388 58.1774 31.0958 57.8634C31.2529 57.4708 31.3314 57.0783 31.3314 56.5287V55.508H31.2529ZM32.5093 62.2601C32.1167 62.4956 31.724 62.6526 31.2529 62.8097C30.8603 62.9667 30.3891 63.0452 29.918 63.0452C29.4468 63.1237 29.0542 63.1237 28.6616 63.1237C28.269 63.1237 27.8763 63.1237 27.5622 63.1237C26.8555 63.1237 26.2273 63.0452 25.5991 62.8097C24.9709 62.6526 24.4213 62.3386 23.8716 61.946C23.3219 61.5535 22.9293 61.0824 22.6937 60.3758C22.4582 59.7477 22.3011 58.9626 22.3011 58.0989C22.3011 57.3138 22.4582 56.6072 22.6937 55.9791C22.9293 55.351 23.3219 54.8799 23.7931 54.5659C24.4998 54.0163 25.3636 53.6237 26.3058 53.3882C27.1696 53.1527 28.1119 52.9956 28.9757 52.9171C29.7609 52.8386 30.3106 52.6816 30.7032 52.4461C31.0173 52.2105 31.1744 51.975 31.1744 51.7394C31.1744 51.5039 31.0958 51.3469 31.0173 51.1898C30.9388 51.0328 30.7032 50.9543 30.4676 50.8758C30.1535 50.7973 29.918 50.7188 29.6824 50.7188C29.4468 50.6403 29.2113 50.6403 28.9757 50.6403C28.7401 50.6403 28.5045 50.6403 28.269 50.7188C28.0334 50.7188 27.8763 50.7973 27.6408 50.8758C27.4837 50.9543 27.3267 51.0328 27.1696 51.1898C27.0126 51.3469 26.934 51.4254 26.8555 51.6609V51.8179H26.6985H22.9293H22.6937V51.5824C22.7722 50.9543 22.9293 50.4047 23.2434 49.9337C23.479 49.4626 23.8716 48.9915 24.3427 48.5989C24.8924 48.1279 25.5206 47.8138 26.2273 47.5783C26.934 47.3427 27.7978 47.2642 28.7401 47.2642C29.7609 47.2642 30.7032 47.3427 31.567 47.4998C32.3522 47.6568 33.059 47.9708 33.6086 48.3634C34.1583 48.756 34.6294 49.227 34.865 49.7766C35.1791 50.3262 35.2576 50.9543 35.2576 51.6609V56.7642C35.2576 57.5494 35.1791 58.1774 35.0221 58.8055C34.865 59.4336 34.6294 59.9047 34.3939 60.3758C34.0798 60.8469 33.7657 61.1609 33.4516 61.475C33.2945 61.789 32.9019 62.0246 32.5093 62.2601ZM49.6276 62.8882H47.6645C47.3504 62.8882 47.1148 62.8097 46.8007 62.7312C46.5652 62.6527 46.3296 62.4956 46.094 62.2601C45.8584 62.0246 45.7799 61.8675 45.6229 61.5535C45.5443 61.3179 45.5443 61.0824 45.5443 60.7684V53.1527C45.5443 52.7601 45.4658 52.3675 45.3873 52.0535C45.2302 51.7394 45.0732 51.5039 44.8376 51.3469C44.602 51.1899 44.2879 51.0328 44.0524 50.9543C43.7383 50.8758 43.5027 50.7973 43.1886 50.7973C42.8745 50.7973 42.5604 50.8758 42.3248 50.9543C42.0893 51.0328 41.7752 51.1899 41.5396 51.3469C41.304 51.5039 41.147 51.7394 40.9899 52.0535C40.8329 52.3675 40.8329 52.7601 40.8329 53.1527V62.6527V62.8882H40.5973H36.6711H36.4355V62.6527V53.9378C36.4355 52.6816 36.5925 51.5824 36.9852 50.7188C37.2993 49.8551 37.8489 49.1485 38.5557 48.6775C39.2624 48.2064 39.9691 47.8923 40.6758 47.6568C41.4611 47.4213 42.2463 47.2642 43.0316 47.2642C43.8953 47.2642 44.6806 47.3427 45.4658 47.5783C46.2511 47.8138 46.9578 48.1279 47.6645 48.5989C48.3712 49.07 48.9209 49.7766 49.3135 50.6403C49.7061 51.5039 49.8632 52.6816 49.8632 54.0163V62.7312V62.9667H49.6276V62.8882Z" fill="#F58220"/>
<defs>
<linearGradient id="paint0_linear_6_1886" x1="68.5258" y1="33.1281" x2="126.014" y2="33.1281" gradientUnits="userSpaceOnUse">
<stop stop-color="#ED1864"/>
<stop offset="0.333333" stop-color="#F58220"/>
<stop offset="0.666667" stop-color="#ED1864"/>
<stop offset="1" stop-color="#F58220"/>
</linearGradient>
<clipPath id="clip0_6_1886">
<rect width="42" height="18" fill="white" transform="translate(75.9999 23.9998)"/>
</clipPath>
</defs>
</svg>
